<?xml version="1.0" encoding="UTF-8" standalone="no"?>
<!-- Created with Inkscape (http://www.inkscape.org/) -->

<svg
   xmlns:dc="http://purl.org/dc/elements/1.1/"
   xmlns:cc="http://creativecommons.org/ns#"
   xmlns:rdf="http://www.w3.org/1999/02/22-rdf-syntax-ns#"
   xmlns:svg="http://www.w3.org/2000/svg"
   xmlns="http://www.w3.org/2000/svg"
   xmlns:sodipodi="http://sodipodi.sourceforge.net/DTD/sodipodi-0.dtd"
   xmlns:inkscape="http://www.inkscape.org/namespaces/inkscape"
   width="26.45833mm"
   height="26.458334mm"
   viewBox="0 0 26.45833 26.458334"
   version="1.1"
   id="svg8"
   inkscape:version="0.92.5 (0.92.5+68)"
   sodipodi:docname="shopping_bag.svg">
  <defs
     id="defs2" />
  <sodipodi:namedview
     id="base"
     pagecolor="#ffffff"
     bordercolor="#666666"
     borderopacity="1.0"
     inkscape:pageopacity="0.0"
     inkscape:pageshadow="2"
     inkscape:zoom="3.959798"
     inkscape:cx="-37.580862"
     inkscape:cy="51.236439"
     inkscape:document-units="px"
     inkscape:current-layer="layer1"
     showgrid="false"
     fit-margin-top="0"
     fit-margin-left="0"
     fit-margin-right="0"
     fit-margin-bottom="0"
     showborder="false"
     showguides="true"
     inkscape:guide-bbox="true"
     inkscape:window-width="1853"
     inkscape:window-height="1025"
     inkscape:window-x="1987"
     inkscape:window-y="27"
     inkscape:window-maximized="1" />
  <metadata
     id="metadata5">
    <rdf:RDF>
      <cc:Work
         rdf:about="">
        <dc:format>image/svg+xml</dc:format>
        <dc:type
           rdf:resource="http://purl.org/dc/dcmitype/StillImage" />
        <dc:title />
      </cc:Work>
    </rdf:RDF>
  </metadata>
  <g
     inkscape:label="Layer 1"
     inkscape:groupmode="layer"
     id="layer1"
     transform="translate(387.91636,-613.16027)">
    <path
       style="fill:#ffffff;stroke-width:0;stroke-miterlimit:4;stroke-dasharray:none"
       d="m -377.58939,613.16034 c -0.4137,0.003 -2.62447,0.12538 -2.71792,2.40849 v 4.06875 h -0.85075 c 0,0 -2.73272,-0.17835 -2.78428,2.40782 l -3.97402,15.16537 c 0,0 0.22816,2.4129 2.78427,2.40783 h 10.4449 10.44489 c 10e-6,0 0,0 0,0 2.556,0.005 2.78426,-2.40764 2.78427,-2.40781 v 0 l -3.974,-15.16539 c -0.0516,-2.58617 -2.78429,-2.40782 -2.78429,-2.40782 h -0.85074 v -4.06875 c -0.10313,-2.51929 -2.78429,-2.40782 -2.78429,-2.40782 h -2.83584 -2.83583 c 0,0 -0.0236,-9.7e-4 -0.0664,-6.7e-4 z m 0.0664,2.40849 h 2.83583 2.83584 v 4.06875 h -2.83584 -2.83583 z m -3.63504,6.47657 h 0.85075 v 2.06462 a 2.4974377,2.3804612 0 0 0 -1.13989,1.99542 2.4974377,2.3804612 0 0 0 2.49743,2.38046 2.4974377,2.3804612 0 0 0 2.49745,-2.38046 2.4974377,2.3804612 0 0 0 -1.0707,-1.95037 v -2.10967 h 2.83583 2.83584 v 2.10967 a 2.4974376,2.3804612 0 0 0 -1.0707,1.95037 2.4974376,2.3804612 0 0 0 2.49745,2.38046 2.4974376,2.3804612 0 0 0 2.49743,-2.38046 2.4974376,2.3804612 0 0 0 -1.13989,-1.99542 v -2.06462 h 0.85074 l 3.97402,15.16537 v 0 h -10.44489 -10.4449 v 0 z m 2.20829,3.14569 a 1.0208504,0.90646701 0 0 1 1.02087,0.90647 1.0208504,0.90646701 0 0 1 -1.02087,0.90647 1.0208504,0.90646701 0 0 1 -1.02085,-0.90647 1.0208504,0.90646701 0 0 1 1.02085,-0.90647 z m 8.52517,0 a 1.0208504,0.90646701 0 0 1 1.02084,0.90647 1.0208504,0.90646701 0 0 1 -1.02084,0.90647 1.0208504,0.90646701 0 0 1 -1.02087,-0.90647 1.0208504,0.90646701 0 0 1 1.02087,-0.90647 z"
       id="rect880"
       inkscape:connector-curvature="0" />
  </g>
</svg>
