<?xml version="1.0" encoding="UTF-8" standalone="no"?>
<!-- Created with Inkscape (http://www.inkscape.org/) -->

<svg
   xmlns:dc="http://purl.org/dc/elements/1.1/"
   xmlns:cc="http://creativecommons.org/ns#"
   xmlns:rdf="http://www.w3.org/1999/02/22-rdf-syntax-ns#"
   xmlns:svg="http://www.w3.org/2000/svg"
   xmlns="http://www.w3.org/2000/svg"
   xmlns:sodipodi="http://sodipodi.sourceforge.net/DTD/sodipodi-0.dtd"
   xmlns:inkscape="http://www.inkscape.org/namespaces/inkscape"
   width="26.458336mm"
   height="26.458328mm"
   viewBox="0 0 26.458336 26.458329"
   version="1.1"
   id="svg8"
   inkscape:version="0.92.5 (0.92.5+68)"
   sodipodi:docname="hamburger.svg">
  <defs
     id="defs2" />
  <sodipodi:namedview
     id="base"
     pagecolor="#ffffff"
     bordercolor="#666666"
     borderopacity="1.0"
     inkscape:pageopacity="0.0"
     inkscape:pageshadow="2"
     inkscape:zoom="2"
     inkscape:cx="-171.05788"
     inkscape:cy="52.987868"
     inkscape:document-units="px"
     inkscape:current-layer="layer1"
     showgrid="false"
     showborder="false"
     fit-margin-top="0"
     fit-margin-left="0"
     fit-margin-right="0"
     fit-margin-bottom="0"
     inkscape:window-width="1853"
     inkscape:window-height="1025"
     inkscape:window-x="1987"
     inkscape:window-y="27"
     inkscape:window-maximized="1" />
  <metadata
     id="metadata5">
    <rdf:RDF>
      <cc:Work
         rdf:about="">
        <dc:format>image/svg+xml</dc:format>
        <dc:type
           rdf:resource="http://purl.org/dc/dcmitype/StillImage" />
        <dc:title></dc:title>
      </cc:Work>
    </rdf:RDF>
  </metadata>
  <g
     inkscape:label="Layer 1"
     inkscape:groupmode="layer"
     id="layer1"
     transform="translate(-6.8791666,-181.37708)">
    <path
       style="fill:#ffffff;stroke-width:0;stroke-miterlimit:4;stroke-dasharray:none"
       d="m 30.445173,181.37708 c 1.602389,0 2.89233,1.29 2.89233,2.89233 0,1.60242 -1.289941,2.89233 -2.89233,2.89233 H 9.7714996 c -1.602389,0 -2.892333,-1.28991 -2.892333,-2.89233 0,-1.60233 1.289944,-2.89233 2.892333,-2.89233 z m -6.455936,10.33683 c 1.602388,0 2.89233,1.29 2.89233,2.89233 0,1.60242 -1.289942,2.89234 -2.89233,2.89234 H 9.7714996 c -1.602389,0 -2.892333,-1.28992 -2.892333,-2.89234 0,-1.60233 1.289944,-2.89233 2.892333,-2.89233 z m -7.378362,10.33683 c 1.602389,0 2.892848,1.29 2.892848,2.89234 0,1.60241 -1.290459,2.89233 -2.892848,2.89233 H 9.7714996 c -1.602389,0 -2.892333,-1.28992 -2.892333,-2.89233 0,-1.60234 1.289944,-2.89234 2.892333,-2.89234 z"
       id="rect821"
       inkscape:connector-curvature="0" />
  </g>
</svg>
