<?xml version="1.0" encoding="iso-8859-1"?>
<!-- Generator: Adobe Illustrator 16.0.0, SVG Export Plug-In . SVG Version: 6.00 Build 0)  -->
<!DOCTYPE svg PUBLIC "-//W3C//DTD SVG 1.1//EN" "http://www.w3.org/Graphics/SVG/1.1/DTD/svg11.dtd">
<svg version="1.1" id="Capa_1" xmlns="http://www.w3.org/2000/svg" xmlns:xlink="http://www.w3.org/1999/xlink" x="0px" y="0px"
	 width="38.379px" height="38.379px" viewBox="0 0 38.379 38.379" style="enable-background:new 0 0 38.379 38.379;"
	 xml:space="preserve">
<g>
	<path d="M32.787,34.149c-0.613,0.842-1.591,1.34-2.632,1.34h-3.341V23.717H22.23l1.712-3.357h-2.668v-1.94
		c0,0,5.254-1.715,3.998-11.08c0,0-5.368,1.371-8.338-1.715c0,0-1.143,2.17-3.541,1.371c0,0-1.257,8.682,3.541,11.424v1.826
		L14.4,20.288l1.749,3.434h-4.584v11.771H8.225c-1.041,0-2.02-0.496-2.632-1.34c-0.612-0.841-0.786-1.924-0.467-2.914l3.061-9.49
		c0.29-0.897,0.944-1.603,1.769-1.973C9.363,16.87,7.148,4.019,13.623,1.288c0,0,5.026-3.312,12.22,0.687
		c0,0,5.65,3.112,2.43,17.737c0.896,0.349,1.613,1.082,1.922,2.035l3.06,9.49C33.572,32.226,33.399,33.309,32.787,34.149z
		 M10.094,38.379h18.189v-2.168H10.094V38.379z"/>
</g>
<g>
</g>
<g>
</g>
<g>
</g>
<g>
</g>
<g>
</g>
<g>
</g>
<g>
</g>
<g>
</g>
<g>
</g>
<g>
</g>
<g>
</g>
<g>
</g>
<g>
</g>
<g>
</g>
<g>
</g>
</svg>
