<?xml version="1.0" encoding="UTF-8" standalone="no"?>
<!-- Created with Inkscape (http://www.inkscape.org/) -->

<svg
   xmlns:dc="http://purl.org/dc/elements/1.1/"
   xmlns:cc="http://creativecommons.org/ns#"
   xmlns:rdf="http://www.w3.org/1999/02/22-rdf-syntax-ns#"
   xmlns:svg="http://www.w3.org/2000/svg"
   xmlns="http://www.w3.org/2000/svg"
   xmlns:sodipodi="http://sodipodi.sourceforge.net/DTD/sodipodi-0.dtd"
   xmlns:inkscape="http://www.inkscape.org/namespaces/inkscape"
   width="34.794mm"
   height="26.458mm"
   version="1.1"
   viewBox="0 0 34.794 26.458"
   id="svg852"
   sodipodi:docname="capra_neagra.svg"
   inkscape:version="0.92.5 (0.92.5+68)">
  <defs
     id="defs856" />
  <sodipodi:namedview
     pagecolor="#ffffff"
     bordercolor="#666666"
     borderopacity="1"
     objecttolerance="10"
     gridtolerance="10"
     guidetolerance="10"
     inkscape:pageopacity="0"
     inkscape:pageshadow="2"
     inkscape:window-width="1920"
     inkscape:window-height="1052"
     id="namedview854"
     showgrid="false"
     inkscape:zoom="7.8000982"
     inkscape:cx="61.521723"
     inkscape:cy="49.101946"
     inkscape:window-x="0"
     inkscape:window-y="0"
     inkscape:window-maximized="1"
     inkscape:current-layer="svg852" />
  <metadata
     id="metadata846">
    <rdf:RDF>
      <cc:Work
         rdf:about="">
        <dc:format>image/svg+xml</dc:format>
        <dc:type
           rdf:resource="http://purl.org/dc/dcmitype/StillImage" />
        <dc:title />
      </cc:Work>
    </rdf:RDF>
  </metadata>
  <g
     transform="translate(-335.85 -161.29)"
     id="g850"
     style="fill:#ffffff">
    <path
       d="m336.56 161.29c5e-3 0.0425-0.0974 0.025-0.0974 0.025-0.28507 0.28758-0.39884 0.24944-0.39884 0.24944-0.88413 0.98315 1.2661 2.6984 1.2661 2.6984 0.0358 0.0619 0.0931 5.5e-4 0.0931 5.5e-4 0.17756-1.0378 1.1578-1.1504 1.1578-1.1504-0.48513-0.0826-0.70024-0.05-0.70024-0.05-0.21255-0.11007-0.41012-0.0976-0.41012-0.0976-0.3901-0.035-0.50505 5e-3 -0.50505 5e-3 -0.18005-8e-3 -0.28756-0.2176-0.28756-0.2176-0.13504-0.22757-0.23761-0.28259-0.23761-0.28259-0.28008-0.83774 0.11743-0.84522 0.11743-0.84522 0.37011 0 0.49015-0.13506 0.49015-0.13506-0.025-0.0751-0.13494-0.06-0.13494-0.06 0.14254-0.0801 0.33751-0.045 0.33751-0.045-8e-3 -0.0851-0.0924-0.0876-0.0924-0.0876zm2.6052 2.1169s-1.4782-0.0425-1.5348 1.1777c0 0 0.17329 0.099 0.15914 0.16976 0 0-0.35011 0.18036-0.27938 0.78863 0 0 0.0814 1.6126 1.4358 1.7718 0 0 0.74974 0.0354 1.1529 0.16621 0 0 0.20159 0.18036 0.34659 0.22987 0.0565-7e-3 0.33949 0.0176 0.47389 0.24402 0 0-0.11323-1.0928-0.33951-1.5101 0 0 0.0176-0.43853-0.1839-0.65425 0 0-0.61888 0.5623-1.0574 0.53402 0 0-1.2767 0.24401-1.2838-0.69317 0 0-0.0636-0.67901 0.53048-0.80632 0 0 1.4747-0.1273 1.5631 0.30415 0 0 0.0936 0.11875 0.1777-0.0433 0 0-0.23004-0.99022-0.65016-1.5204 0 0-0.24546 0.0712-0.5107-0.1587zm0.98934 0.26789c-0.0685 1.2e-4 -0.10849 0.0105-0.10849 0.0105 0.42511 0.53515 1.1203 3.3559 1.1203 3.3559-0.0394 0.15123 0.13847 0.86025 0.1173 0.89563-0.0636 0.46681 0.27584 0.76388 0.27584 0.76388 0.17683 0.10613 0.0142 0.59413 0.0142 0.59413 0.0212 0.21926 0.38194 0.14854 0.38194 0.14854-0.0283 0.26877 0.0212 0.37486 0.0212 0.37486 0.0354 0.25464-0.0565 0.38902-0.0565 0.38902 0.12019 0.38902 0.53643 0.23993 0.53643 0.23993 0.10008 0.3501 0.0105 0.36006 0.0105 0.36006-0.49013 0.46013-0.41012 0.6201-0.41012 0.6201 0.43011 0.44012 0.15007 1.1804 0.15007 1.1804-0.35009 0.56015-0.15007 0.94026-0.15007 0.94026 0.60016 0.50014 0.66022 0.91021 0.66022 0.91021-0.12007 0.24007 0.12992 0.98028 0.12992 0.98028 0.03 0.17004 0.0701 0.90026 0.0701 0.90026 0.25007 0.0105 0.43012-0.02 0.43012-0.02 0.59017 0.13006 0.51015 0.04 0.51015 0.04-0.11007-0.46013 0.05-0.86026 0.05-0.86026 0.04-1.0703-0.40006-3.0509-0.40006-3.0509 0.0105-0.26006 0.19009-0.16997 0.19009-0.16997 0.61017 0.77021 0.45013 4.1461 0.45013 4.1461 0.25506-0.0275 0.96292 0.17748 0.96292 0.17748 0.0354-0.099-0.0707-1.7046-0.0707-1.7046-0.14854-0.31121-0.0919-1.1529-0.0919-1.1529-0.099-0.3395-0.0848-1.648-0.0848-1.648-0.0919-0.45974-0.14146-1.9946-0.14146-1.9946-0.21927-0.53048-0.16976-1.1812-0.16976-1.1812-0.13438-0.22633-0.34922-1.8437-0.34922-1.8437-0.14004-0.25007-0.18999-1.3804-0.18999-1.3804 5e-3 -0.13006-0.22821-0.16025-0.22821-0.16025 0.71084-0.45267 0.7745-0.87351 0.7745-0.87351-1.2838 0.91948-1.6162 0.1945-1.6162 0.1945-0.50926 0.0919-0.5234-0.1839-0.5234-0.1839 0.21926-0.17682 0.10968-0.35011 0.10968-0.35011-0.22987 0.18744-0.56584 0.145-0.56584 0.145-0.145-0.26524-1.0664-0.41212-1.0664-0.41212-0.30258-0.33009-0.59097-0.38121-0.74167-0.38095zm-1.2476 1.4222c-0.28219 7e-3 -0.49949 0.12506-0.50637 0.47412 0 0 0.15507 0.93529 1.4854 0.19009 0.45013-0.23007 0.33509-0.27509 0.33509-0.27509s-0.77541-0.40063-1.3142-0.38912zm5.3721 0.62983s0.0494 0.1273 0.0176 0.30415c0 0 0.0601 0.0389 0.0389 0.21218 0 0 0.046 0.0178 0.0212 0.20866 0 0 0.0425 0.0212 0.0176 0.20512 0 0 0.0494 7e-3 0.0247 0.21572 0 0 0.10612 0.15561 0.10612 0.32182 0 0 0.053 0.145 0.0178 0.27232 0 0 0.0743 0.12019 0.0779 0.36779 0 0 0.053 0.0848 0.0283 0.21572 0 0 0.0672 0.1273 0.0283 0.24402 0 0 0.0813 0.053 0.0743 0.26525 0 0 0.0636 0.11664 0.0636 0.29352 0 0 0.0884 0.36073 0.053 0.5234 0 0 0.0955 0.41732 0.0636 0.47743 0 0 0.0494-0.0142 0.0707 0.11323 0 0 0.053 0.28292-7e-3 0.48804 0 0 0.2122 0.44913 0.1202 0.94778 0 0-0.0955 0.33243 0.0707 0.70376l-0.0212 1.3297s0.0955 0.0848 0.0813 0.33951v0.79924s0.16267 0.39963 0.11664 0.85938c0 0 0.11678 0.77449-0.0142 1.2024 0 0 0.19819 0.0272 0.26071 0.0822 0 0-0.0274-0.84256 0.0222-0.83196 0 0-0.0354-0.32182 0.0354-0.27231 0 0-0.0636-0.41731 7e-3 -0.39256 0 0-0.0354-0.15206 0.0354-0.13084 0 0-0.053-0.47036 7e-3 -0.4456 0 0-0.0212-0.52694 0.0354-0.49158 0 0-0.0884-0.62242 0.0105-0.59413 0 0-0.0105-0.29706 0.0283-0.26877 0 0-0.0318-0.20513 0.0283-0.16975l-4e-3 -0.90181s-0.0813-0.15915-4e-3 -0.26171c0 0 0-0.145 0.1202-0.39255 0 0-0.10257-0.1273 1.2201-0.39962 0 0 0.14146-0.19451 0.26523-0.57292 0 0 0.0494-1.1741-0.0176-1.2802 0 0-0.053-0.86998 0.0212-0.93718 0 0-0.15207-0.26524 0.61535-0.41377 0 0 0.053-0.17329-0.54461-0.0425 0 0-0.33597-0.12374 0.0884-0.0919 0 0-7e-3 -0.21572-0.86645-0.15561 0 0-0.0743-0.0318 0.19451-0.0919 0 0 0.0565-0.0601-0.57999-0.1202 0 0 0.24756-0.0955-0.0636-0.21573 0 0-1.6268 0.45268-0.56939-0.0212 0 0-0.30059-0.36781-0.88412-0.17684 0 0-0.39255-0.0389 0.0919-0.47743 0 0-0.28292-0.3112 0.42438-0.58705 0 0 0.10613-0.33243-0.24048-0.0779 0 0-0.38902 0.0672-0.54108-0.17682zm-6.9437 0.36448s-0.12506 5e-3 -0.0851 0.20502c0 0-0.23004 0.25505-0.4351 0.86522-0.31009 0.53515-0.4551 0.70022-0.4551 0.70022 0.0105 0.18006-0.10494 0.50518-0.10494 0.50518 0.25007 0.4051 0.40503 0.36006 0.40503 0.36006 0.23007 0.35009 0.47015 0.20003 0.47015 0.20003 0.12006 0.45012 0.74023 0.15008 0.74023 0.15008 0.24507-0.49513 0.72022-0.66519 0.72022-0.66519 0.39011-0.39011 0.50506-0.36515 0.50506-0.36515 0.63019-0.3451 0.52021-0.3751 0.52021-0.3751-1.1503 0.0651-1.7455-0.4751-1.7455-0.4751-0.3851-0.48513-0.53512-1.1053-0.53512-1.1053zm5.2263 0.65901c0.0835-7e-3 0.18511 0.11112 0.18511 0.11112 1.1303 2.6958 0.83525 2.8408 0.84622 2.8651-0.1202 0.21926-0.27231-7e-3 -0.27231-7e-3 0.0708-0.80632-0.8639-2.7731-0.8639-2.7731 0.0118-0.14441 0.0547-0.19251 0.10481-0.19616zm6.0143 1.3283s-0.23341 0.1839-0.62949 0.16267c0 0-0.31829 0.0566-0.29707 0.26171 0 0 0.11323 2.0936 7e-3 2.2704 0 0-0.28292 0.36779-0.27585 0.55169 0 0-0.0884 7e-3 -0.18391 0.11322 0 0-0.53754 0.17682-1.0609 0.28292 0 0-0.14146 0.11323-0.0283 1.351 0 0-0.10613-0.0425-0.14146 1.6834 0 0-0.11652 0.94359-0.11836 2.0137 0 0 0.99031 0.18996 1.1704 0.35 0 0 0.4701 0.0105 0.79019 0.13006 0 0 0.13005-1.0502 0.16002-1.6004 0 0 0.0901-0.64029 0.02-1.1004 0 0 0.0105-1.4504 0.0701-1.5304 0 0 0.29004-0.40009 0.38007 0.31011 0 0 0.38009 1.8405 0.67016 2.6507 0 0-0.0899 0.87028 0.24016 1.2504 0 0-0.0175 0.0851 0.13504 0.3826l0.52009-0.0105s-0.0344-2.7757-0.25374-3.186c0 0-0.34658-0.85583-0.62243-1.3014 0 0-0.0565-0.16976 0.20513-0.35366 0 0 1.0114-1.0822 0.86997-1.6056 0 0 0.22633-0.74974-0.52341-1.3792 0 0-0.16267-0.38902 0.0354-0.38902 0 0 0.0425-0.19804 0.12019-0.21218 0 0-0.25463-0.1344-0.2334-0.2122 0 0 0.0212-0.0778 0.24048-0.0848 0 0-0.099-0.099-0.5234-0.099 0 0-0.19805-0.16975-0.38195-0.14146 0 0 0.0779-0.14146-0.55876-0.22633 0 0 0.0636-0.14854 0.62949-0.16269 0 0-0.21926-0.17682-0.43146-0.16975zm-2.6457 0.824c0.05-1e-3 0.10481 0 0.12427 0.0142 0 0 0.31474 0.28646 0.3501 0.72499 0 0 0.12375 0.14146-0.32182 0.4562 0 0-0.18035 0.10258-0.26877-0.19804 0 0 0.046-0.32182-0.0565-0.50926 0 0 0.046-0.21572-0.0318-0.33596 0 0-0.0247-0.0919 0.10968-0.145 0 0 0.0451-5e-3 0.0951-7e-3zm4.1486 0.38449-0.19008 0.31011c9e-3 3.4e-4 0.0237 7e-3 0.0414 0.0167-0.0141-7e-3 -0.028-0.0118-0.0414-0.0167 0 0 0.83027 0.40018 0.62022 1.8906 0 0-0.27014 0.85023-1.0704 1.5904 0 0 1.0404 1.2003 0.83031 4.4812 0 0-0.39011 0.02 1.0403 0.34006 0 0 0.10994-0.19-0.13006-1.0302l0.0105-1.4104s0.0899-0.29014 0.26998 0.0105l-0.02 1.2804s0.0501 0.46005 0.13006 0.68011c0 0 0.12007 0.18006 0.02 0.49014 0 0 0.35012 0.0799 0.82025 0.12006 0 0 0.25007-0.10007 1.0603-0.14003 0 0-0.13006-2.0705-0.42019-2.8007 0 0-0.27006-2.0206-0.59015-2.5208 0 0-0.19007-1.0703-0.37011-1.1803 0 0-0.03-0.66022-0.37012-1.2104 0 0-0.27001-0.13006-0.6001-0.20003 0 0-0.10007-0.20006-0.60021-0.45013 0 0-0.19621-0.13784-0.44009-0.2501zm-1.4574 0.86423c0.0973 3e-3 0.23828 0.0414 0.4425 0.14821 0 0 0.36073 0.19097 0.36073 0.79924 0 0-0.0919 0.19805-0.38901 0.49512 0 0-0.17683 0.1556-0.1839 0.24756 0 0-0.23341 0.0778-0.27586-0.18391 0 0-0.0494 4e-3 -7e-3 -0.31121 0 0 0.0354-0.14146-0.0425-0.39609 0 0-0.0142-0.43146-0.1202-0.66486 0 0 0.0138-0.12165 0.17617-0.13339 0.0118-8.8e-4 0.0253-1e-3 0.0392-6.7e-4zm4.818 0.5297c-0.0274-5.6e-4 -0.0548-4.3e-4 -0.0822 4.5e-4 0 0 0.0494 1.9804-0.0848 2.2422 0 0 0.48097 1.5561 0.47389 2.1148 0 0 0.21926 0.8912 0.1273 1.1034 0 0 0.0708 0.48097 0.15561 0.54463 0 0 0.19805 0.36779 0.099 0.84169 0 0 0.0142 0.26169 0.0919 0.3395 0 0 0.50218-0.12019 0.94779 0-7e-3 -0.0708-0.29-0.96193-0.19097-1.2731 0 0-0.20513-1.0044-0.20513-1.2448 0 0-0.41023-1.3722-0.59412-1.4924 0 0-7e-3 -0.40316 0.26169-0.0636 0 0 0.55171 1.2166 0.57292 1.45 0 0 0.0919 0.67902 0.20512 0.84876 0 0-7e-3 0.9973 0.0848 1.0468 0 0 0.0779 0.67194 0.17682 0.72852 0 0 0.41024-0.0212 0.48097 0.0636 0 0 0.38194-2.0936 0.38194-2.815 0 0-7e-3 -0.8912 0.0778-1.1034 0-0.0354 0.0636-0.70022-0.0848-2.03l7e-3 -0.89828s-1.1246-0.16267-1.648-0.16267c0 0 0.47389 0.47389 0.43853 0.67193 0 0 0.26169 0.46682 0.31121 0.51633 0 0 0.31828 0.32536 0.35365 0.94778 0 0-0.1344 0.25462-0.28293-0.0142 0 0-0.0141-0.53048-0.62949-1.2661 0 0 0.0283-0.35366-0.64365-0.92657 0 0-0.39161-0.16165-0.8019-0.1702zm8.8512 0.0733c-0.24053-4e-3 -0.35862 0.0633-0.35862 0.0633 0 0.13006-0.5202 0.73029-0.5202 0.73029 0.06 0.33009-0.0899 0.68012-0.0899 0.68012-0.55015 0.11007-1.3003-0.24004-1.3003-0.24004 0.62018 1.5004 0.32005 4.1811 0.32005 4.1811-0.0801 1.2904-0.17008 3.2809-0.17008 3.2809 0.11007 0.47513 0.83528 0.45013 0.83528 0.45013 0.26007-0.23007 0.55015-0.12493 0.55015-0.12493 0.36509-0.11507 0.32005 0.45013 0.32005 0.45013 0.7252-0.05 0.92523 0.10494 0.92523 0.10494 0-1.2153-0.11506-2.6058-0.11506-2.6058-0.66518-0.30508-0.68012-0.68011-0.68012-0.68011-0.54514-0.12507-0.78522-0.0301-0.78522-0.0301 0.10508 0.0801 0.055 0.73526 0.065 0.75526 0.085 0.065-0.025 0.53015-0.025 0.53015 0.16004-0.07 0.28501 0.025 0.28501 0.025 0.59517-0.0105 0.62022 0.13505 0.62022 0.13505l-0.02 0.79516c-0.20006 0.0951-0.40515-0.0951-0.40515-0.0951-0.51014 0.10008-0.71017-0.25507-0.71017-0.25507l-0.035-1.7705c-0.0951-0.24506-0.18502-1.2203-0.18502-1.2203-0.06-0.59517-0.0105-1.3904-0.0105-1.3904 0.17505-0.39011 0.31508-5e-3 0.31508-5e-3 -0.015 0.41011 0.0451 0.57016 0.0451 0.57016 0.38512 0.3801 0.89518 0.34513 0.89518 0.34513 0.20506-0.51513-0.10007-0.96535-0.10007-0.96535 0.17005-0.92025-0.25363-1.3539-0.25363-1.3539-0.25109 0.046-0.3289-0.046-0.3289-0.046-0.0176-0.24402 0.92657-1.0291 0.92657-1.0291 0.19097-0.27939 1.2625-0.96546 1.2625-0.96546 0.0955-0.26525-0.0212-0.25651-0.0212-0.25651l-0.2901 0.20015c-0.45013 0.15003-0.66022 0.05-0.66022 0.05-0.15004-0.17005-0.02-0.28004-0.02-0.28004-0.10757-0.0225-0.2013-0.0318-0.28148-0.0333zm-5.6516 0.40106s0.1273 2.3695 0.0354 2.4331c0 0 0.0212 1.4712-0.0779 1.9097 0 0-0.21927 2.3836-0.45268 2.7302 0 0 0.35365 0.23341 0.72145 0.33951 0 0 0.12729 0.23341 0.47389 0.31121 0 0 0.65779-2.716 0.59414-2.7372 0 0 0.0283-0.0565-0.54463-0.0425 0 0-0.47389-0.25463 0.0425-0.27584l0.5234 0.0142s0.0636-1.2661 0.24048-2.5392c0 0-0.13438-0.20512-0.68607-0.0283 0 0-0.2688-0.0636 0.0141-0.29706 0 0 0.0708-0.12729 0.67194 7e-3 0 0 0.11322-1.3792 0.0636-1.7258 0 0-0.71438 0.0142-1.6197-0.099zm1.882 0.0823s0.0668 1.2149-0.0799 1.8005c0 0-0.02 1.7404-0.14003 2.2105 0 0-0.0901 1.5105-0.2901 2.0106 0 0-0.28004 0.81013-0.40006 1.7404 0 0 0.70018 0.37009 1.0403 0.49013 0 0 0.34006-1.0802 0.28004-2.7007 0 0 0.0899-0.37014 0.28005-0.0701 0 0 0.0801 1.7305-0.28005 2.8608l0.80025 0.37012s0.28999-1.5904 0.22999-1.9806c0 0 0.19009-2.5208 0.0901-2.9109 0 0 0.11493-1.2303 0.0375-1.5029 0 0-0.0224-1.1228-0.53756-1.863 0 0-0.43016-0.085-0.79527-0.4151 0 0-0.10508 0.035-0.23507-0.04zm-7.2257 1.0394c0.097 0.0105 0.16378 0.20091 0.16378 0.20091s-0.0105 0.2001 0.0176 0.47268c0 0 0.0575 0.21246 0.0375 0.7126 0 0-0.22506 0.37016-0.29508-0.03 0 0 0.0651-0.32509 0.0105-0.49015 0 0 0.0105-0.44013-0.0651-0.60518 0 0-0.06-0.03-5e-3 -0.15008 0.0413-0.0738 0.0806-0.10507 0.11651-0.11046 7e-3 -1e-3 0.0133-1e-3 0.0197-4.3e-4zm7.9001 1.2094c0.0405-1e-3 0.0907 0.0235 0.15085 0.0993 0 0 0.17001 1.0278 0.10494 1.1803 0 0-0.15754 0.25259-0.29507-0.0118 0 0-3e-3 -0.8752-0.0924-1.1328 0 0 0.0426-0.13124 0.13173-0.13439zm-16.773 1.1382s-0.42084 0.20159-0.56584 0.17682c0 0-0.65071-0.0283-1.0114 0.046 0 0-0.24402 0.14854-0.43853 0.39609 0 0-0.0601 0.0636-0.0636 0.26524 0 0-0.0884 0.18743-0.32184 0.24402 0 0-0.10612 0.046-0.17682 0.27938l-0.10612 0.16268s-4e-3 0.0425 0.046 0.31121c0 0-0.099 0.18744-0.17682 0.51987 0 0-0.21926 0.24402-0.34304 0.75328 0 0-0.18744 0.23695-0.31475 0.679 0 0 4e-3 0.30769-0.25109 0.59414l-0.28646 0.3006s-0.0672-0.0389-7e-3 0.56585c0 0 0.0283 0.046-0.32182 0.50572 0 0 0.0177 0.31828-0.0848 0.37133v0.38548s0.20866 0.053 0.14499 0.24402l-0.14853 0.16267-0.0105 0.49158s0.13792-0.0637 0.13792 0.12019c0 0 0.19097 0.1273 0.27586-0.0318 0 0 0.19097-0.0919 0.48095-0.47389 0 0 0.16976-0.17329 0.32537-0.20511 0 0 0.0318-0.0955 4e-3 -0.48097 0 0 0.053 0.0105 0.0743-0.19804 0 0 0.15207-0.0566 0.26171-0.22634 0 0-0.0283-0.3006 0.0565-0.35365 0 0 0.0636-0.0601 0.14146-0.0354 0 0 0.0247-0.17683-0.0247-0.37133 0 0 0.10612-0.18743 0.0813-0.51986 0 0-0.0243-0.43866 0.24778-0.67382 0 0-0.23007 0.86024-0.04 1.4504 0 0-0.18301 0.14996-0.33508 0.24191 0 0 0.0743 0.0955-0.1202 0.35366 0 0-0.1556 0.6012-0.0955 0.8523 0 0 0.0955 0.15207 0.21219 0.28292 0 0-7e-3 0.32889 0.046 0.3784 0 0-0.0779 0.26877 0.0354 0.3678 0 0 0.0601 0.0389 0.15914 0.0848 0 0 0.17682-0.0354 0.33597-0.29 0 0 0.21572-0.39608 0.3006-0.33597 0 0 0.35012-0.38194 0.27939-0.49156 0 0-0.24756-0.26525-0.0919-0.435 0 0 0.18743-0.0955 0.17328-0.18036-0.0176-0.0142 0.0212-0.16268-0.10967-0.3006 0 0-7e-3 -0.21219 0.15561-0.32182 0 0 0.0848-0.18036-0.0813-0.68609 0 0 0.11664-0.86643 0.0813-1.2095 0 0 0.13085-0.45268 0.0884-0.83108 0 0 0.13792-0.44559 0.11678-0.61535 0 0 0.14852-0.19805 0.21925-0.42085 0 0 0.0919-0.15914 0.23341-0.22633 0 0 0.42792 0.0318 0.61889 0 0 0 0.33243-0.0142 0.38195 0.0318 0 0 0.0601-0.76034-0.11323-1.0892 0 0 0.0247-0.0848-0.0636-0.36779 0 0-0.0389-0.15207-0.0105-0.24756zm20.52 3.2298 0.0105 0.37011c0.12506 0.21007 0.065 1.0553 0.065 1.0553 0.12007 0.12007 0.065 1.1253 0.065 1.1253 0.15005 0.14504 0.88535 0.26502 0.88535 0.26502 0.26006 0.02 0.4551 0.13006 0.4551 0.13006-0.15004-0.88524 0.16997-0.75515 0.16997-0.75515 0.30509 0.07 0.59027 0.44505 0.59027 0.44505 0.40011 0.62016 0.6001 1.2904 0.6001 1.2904 0.21506 0.11007 0.39509 0.60518 0.39509 0.60518 0.08 0.55015 0.25507 0.69515 0.25507 0.69515-0.0851-0.13006-0.08-1.0653-0.08-1.0653 0.0751-0.42511-0.43509-1.6754-0.43509-1.6754-0.25007-0.37511-0.12007-0.46516-0.12007-0.46516 0.055-0.17005 0.54518-0.26513 0.54518-0.26513 0.50514-0.53514-0.22512-1.2453-0.22512-1.2453 0.035 0.10508-0.50009-5e-3 -0.50009-5e-3s-0.015-0.0401-0.2901 5e-3c0 0-0.0871-0.0999-0.78124-0.15747-0.61115 0.0676-1.6045-0.35266-1.6045-0.35266zm3.571 0.53511c0.90024 1.4604-0.45013 1.6504-0.45013 1.6504 0.93025 1.8405 0.67525 3.9861 0.67525 3.9861 0.24007 0.16505 0.34006 0.9553 0.34006 0.9553 0.035 0.26008 0.29507 0.62519 0.29507 0.62519 0.43012 1.1403 0.29507 2.0806 0.29507 2.0806 0.41513 0.20006 1.0753-0.15505 1.0753-0.15505 0.14004-0.47013-0.20003-0.70024-0.20003-0.70024 0.13006 0.02 0.45013-0.44006 0.45013-0.44006 0.04-0.17005-0.21009-0.2701-0.21009-0.2701-0.03-0.16004 0.0105-0.52009 0.0105-0.52009l0.16003-0.13006c-0.04-0.28007-0.38019-0.66022-0.38019-0.66022-0.4001-0.22006-0.37012-0.67016-0.37012-0.67016-0.0899-0.50014-0.45012-0.98028-0.45012-0.98028s-9e-3 -0.31364 0.19009-0.18997c0.46012 0.41011 0.65016 1.5504 0.65016 1.5504 0.75021 0.46014 0.70022 1.1603 0.70022 1.1603 1.0003 1.5504 1.3504 0.59016 1.3504 0.59016-0.23007-0.35009-0.0501-0.70023-0.0501-0.70023-0.14004-0.18005-0.2901-0.89021-0.2901-0.89021-0.14004-0.16004-0.16999-0.62021-0.16999-0.62021 0.25007 0.15004 0-0.52008 0-0.52008-0.36008-0.15005-0.41011-0.69028-0.41011-0.69028-0.22007-0.13006-0.71018-1.1203-0.71018-1.1203-0.15005 0.02-0.72024-1.0702-0.72024-1.0702-0.18004-0.54016-0.89019-1.5504-0.89019-1.5504l-0.02-0.28005-0.28016-0.37011zm-1.3315 0.49522c0.16167 2.1e-4 0.32433 7e-3 0.43124 0.025 0.18005 0.12006 5e-3 0.24997 5e-3 0.24997l-0.98535-0.0105c-0.26007-0.18004 0.0131-0.24954 0.0131-0.24954s0.26655-0.0158 0.536-0.0155zm2.2856 1.7291c0.0488 4e-3 0.0963 0.0563 0.0963 0.0563 0.23006 0.27007 0.18998 0.89031 0.18998 0.89031s0.031 0.50814-0.29 0.18997c0.0105-0.53013-0.10007-0.90015-0.10007-0.90015 5e-3 -0.19505 0.055-0.24014 0.10375-0.23639z"
       stroke-width="0"
       id="path848"
       style="fill:#ffffff" />
  </g>
</svg>
