<?xml version="1.0" encoding="UTF-8" standalone="no"?>
<!-- Created with Inkscape (http://www.inkscape.org/) -->

<svg
   xmlns:dc="http://purl.org/dc/elements/1.1/"
   xmlns:cc="http://creativecommons.org/ns#"
   xmlns:rdf="http://www.w3.org/1999/02/22-rdf-syntax-ns#"
   xmlns:svg="http://www.w3.org/2000/svg"
   xmlns="http://www.w3.org/2000/svg"
   xmlns:sodipodi="http://sodipodi.sourceforge.net/DTD/sodipodi-0.dtd"
   xmlns:inkscape="http://www.inkscape.org/namespaces/inkscape"
   width="26.458332mm"
   height="26.458336mm"
   viewBox="0 0 26.458332 26.458336"
   version="1.1"
   id="svg8"
   inkscape:version="0.92.5 (0.92.5+68)"
   sodipodi:docname="cn_hamburger.svg">
  <defs
     id="defs2" />
  <sodipodi:namedview
     id="base"
     pagecolor="#ffffff"
     bordercolor="#666666"
     borderopacity="1.0"
     inkscape:pageopacity="0.0"
     inkscape:pageshadow="2"
     inkscape:zoom="4"
     inkscape:cx="31.947871"
     inkscape:cy="43.532022"
     inkscape:document-units="px"
     inkscape:current-layer="layer1"
     showgrid="false"
     showborder="false"
     fit-margin-top="0"
     fit-margin-left="0"
     fit-margin-right="0"
     fit-margin-bottom="0"
     inkscape:window-width="1853"
     inkscape:window-height="1025"
     inkscape:window-x="1987"
     inkscape:window-y="27"
     inkscape:window-maximized="1" />
  <metadata
     id="metadata5">
    <rdf:RDF>
      <cc:Work
         rdf:about="">
        <dc:format>image/svg+xml</dc:format>
        <dc:type
           rdf:resource="http://purl.org/dc/dcmitype/StillImage" />
        <dc:title />
      </cc:Work>
    </rdf:RDF>
  </metadata>
  <g
     inkscape:label="Layer 1"
     inkscape:groupmode="layer"
     id="layer1"
     transform="translate(-6.8791666,-181.37708)">
    <path
       style="fill:#ffffff;stroke-width:0;stroke-miterlimit:4;stroke-dasharray:none"
       d="M 10.931641 0 C 4.8753681 0 0 4.8753681 0 10.931641 C -2.3684758e-15 16.987913 4.8753681 21.863281 10.931641 21.863281 L 89.068359 21.863281 C 95.124632 21.863281 100 16.987913 100 10.931641 C 100 4.8753681 95.124632 0 89.068359 0 L 10.931641 0 z M 35.332031 39.068359 C 29.275759 39.068359 24.400391 43.943727 24.400391 50 C 24.400391 56.056273 29.275759 60.931641 35.332031 60.931641 L 89.068359 60.931641 C 95.124632 60.931641 100 56.056273 100 50 C 100 43.943727 95.124632 39.068359 89.068359 39.068359 L 35.332031 39.068359 z M 63.21875 78.136719 C 57.162477 78.136719 52.285156 83.012087 52.285156 89.068359 C 52.285156 95.124632 57.162477 100 63.21875 100 L 89.068359 100 C 95.124632 100 100 95.124632 100 89.068359 C 100 83.012087 95.124632 78.136719 89.068359 78.136719 L 63.21875 78.136719 z "
       transform="matrix(0.26458334,0,0,0.26458334,6.8791666,181.37708)"
       id="rect821" />
  </g>
</svg>
