<?xml version="1.0" encoding="UTF-8"?>
<!-- Created with Inkscape (http://www.inkscape.org/) -->
<svg width="26.458mm" height="26.458mm" version="1.1" viewBox="0 0 26.458 26.458" xmlns="http://www.w3.org/2000/svg" xmlns:cc="http://creativecommons.org/ns#" xmlns:dc="http://purl.org/dc/elements/1.1/" xmlns:rdf="http://www.w3.org/1999/02/22-rdf-syntax-ns#">
 <metadata>
  <rdf:RDF>
   <cc:Work rdf:about="">
    <dc:format>image/svg+xml</dc:format>
    <dc:type rdf:resource="http://purl.org/dc/dcmitype/StillImage"/>
    <dc:title/>
   </cc:Work>
  </rdf:RDF>
 </metadata>
 <g transform="translate(22.755 -170.11)">
  <path d="m-9.8351 170.11v3.9e-4c-1.3762 0.0184-6.8611 0.564-6.5423 8.1194h-1.4968s-0.7609 0.0893-0.85904 0.95115l-4.0215 16.436c0.14389 0.95399 0.85904 0.95078 0.85904 0.95078h24.74s0.71515 3e-3 0.85904-0.95078l-4.0215-16.436c-0.098132-0.86187-0.8594-0.95114-0.8594-0.95114h-1.4964c0.31883-7.5554-5.1664-8.101-6.5427-8.1194v-3.8e-4c-0.19661-2e-3 -0.30918 6e-3 -0.30918 6e-3s-0.11293-8e-3 -0.30954-6e-3zm0.052009 0.83626c0.16386-5e-3 0.25753 0 0.25753 0s5.9925-0.35265 5.9925 7.2835h-11.985c0-6.6816 4.5883-7.2466 5.7353-7.2835zm-8.0911 8.2347h1.4968v1.4271a0.90027 1.4832 0 0 0-0.46019 1.2932 0.90027 1.4832 0 0 0 0.89993 1.483 0.90027 1.4832 0 0 0 0.90064-1.483 0.90027 1.4832 0 0 0-0.48135-1.3115v-1.4088h11.985v1.4088a0.90027 1.4832 0 0 0-0.48099 1.3115 0.90027 1.4832 0 0 0 0.90028 1.483 0.90027 1.4832 0 0 0 0.90028-1.483 0.90027 1.4832 0 0 0-0.46019-1.2932v-1.4271h1.4964l4.0219 16.436h-24.74zm1.9401 2.0418a0.3502 0.66718 0 0 1 0.35007 0.66729 0.3502 0.66718 0 0 1-0.35007 0.66729 0.3502 0.66718 0 0 1-0.35043-0.66729 0.3502 0.66718 0 0 1 0.35043-0.66729zm12.817 0a0.3502 0.66718 0 0 1 0.35007 0.66729 0.3502 0.66718 0 0 1-0.35007 0.66729 0.3502 0.66718 0 0 1-0.35043-0.66729 0.3502 0.66718 0 0 1 0.35043-0.66729z" stroke-width="0"/>
 </g>
</svg>
