<?xml version="1.0" encoding="UTF-8" standalone="no"?>
<!-- Created with Inkscape (http://www.inkscape.org/) -->

<svg
   xmlns:dc="http://purl.org/dc/elements/1.1/"
   xmlns:cc="http://creativecommons.org/ns#"
   xmlns:rdf="http://www.w3.org/1999/02/22-rdf-syntax-ns#"
   xmlns:svg="http://www.w3.org/2000/svg"
   xmlns="http://www.w3.org/2000/svg"
   xmlns:sodipodi="http://sodipodi.sourceforge.net/DTD/sodipodi-0.dtd"
   xmlns:inkscape="http://www.inkscape.org/namespaces/inkscape"
   width="26.458334mm"
   height="26.458153mm"
   viewBox="0 0 26.458334 26.458153"
   version="1.1"
   id="svg8"
   inkscape:version="0.92.5 (0.92.5+68)"
   sodipodi:docname="shopping_bag.svg">
  <defs
     id="defs2" />
  <sodipodi:namedview
     id="base"
     pagecolor="#ffffff"
     bordercolor="#666666"
     borderopacity="1.0"
     inkscape:pageopacity="0.0"
     inkscape:pageshadow="2"
     inkscape:zoom="4"
     inkscape:cx="51.180135"
     inkscape:cy="48.117693"
     inkscape:document-units="px"
     inkscape:current-layer="layer1"
     showgrid="false"
     showborder="false"
     showguides="true"
     inkscape:guide-bbox="true"
     inkscape:window-width="1853"
     inkscape:window-height="1025"
     inkscape:window-x="1987"
     inkscape:window-y="27"
     inkscape:window-maximized="1"
     fit-margin-top="0"
     fit-margin-left="0"
     fit-margin-right="0"
     fit-margin-bottom="0" />
  <metadata
     id="metadata5">
    <rdf:RDF>
      <cc:Work
         rdf:about="">
        <dc:format>image/svg+xml</dc:format>
        <dc:type
           rdf:resource="http://purl.org/dc/dcmitype/StillImage" />
        <dc:title></dc:title>
      </cc:Work>
    </rdf:RDF>
  </metadata>
  <g
     inkscape:label="Layer 1"
     inkscape:groupmode="layer"
     id="layer1"
     transform="translate(22.754684,-170.11023)">
    <path
       style="fill:#000000;stroke:#000000;stroke-width:0;stroke-linecap:butt;stroke-linejoin:miter;stroke-miterlimit:4;stroke-dasharray:none;stroke-opacity:1"
       d="m -9.835057,170.11056 v 3.9e-4 c -1.376241,0.0184 -6.861134,0.564 -6.542309,8.11939 h -1.496769 c 0,0 -0.760905,0.0893 -0.859037,0.95115 l -4.021511,16.43611 c 0.143888,0.95399 0.859037,0.95078 0.859037,0.95078 H -9.5255168 2.844613 c 0,0 0.7151505,0.003 0.8590369,-0.95078 l -4.02151179,-16.43612 c -0.0981323,-0.86187 -0.85939541,-0.95114 -0.85939541,-0.95114 h -1.4964099 c 0.3188256,-7.55539 -5.1664292,-8.101 -6.542668,-8.11941 v -3.8e-4 c -0.1966054,-0.002 -0.3091816,0.006 -0.3091816,0.006 0,0 -0.1129345,-0.008 -0.3095402,-0.006 z m 0.052009,0.83626 c 0.1638602,-0.005 0.2575317,0 0.2575317,0 0,0 5.9924542,-0.35265 5.9924542,7.28352 h -5.9924542 -5.9928127 c 0,-6.68165 4.58826,-7.2466 5.735281,-7.28352 z m -8.091086,8.23466 h 1.496769 v 1.42709 a 0.90026918,1.4831768 0 0 0 -0.460186,1.29318 0.90026918,1.4831768 0 0 0 0.899926,1.48304 0.90026918,1.4831768 0 0 0 0.900643,-1.48304 0.90026918,1.4831768 0 0 0 -0.481346,-1.31146 v -1.40881 h 5.9928117 5.9924542 v 1.40881 a 0.90026925,1.4831768 0 0 0 -0.4809889,1.31146 0.90026925,1.4831768 0 0 0 0.9002849,1.48304 0.90026925,1.4831768 0 0 0 0.9002848,-1.48304 0.90026925,1.4831768 0 0 0 -0.4601854,-1.29318 v -1.42709 h 1.4964099 L 2.8446135,195.6176 H -9.5255168 -21.895646 Z m 1.940095,2.04179 a 0.35020037,0.66718343 0 0 1 0.350071,0.66729 0.35020037,0.66718343 0 0 1 -0.350071,0.66729 0.35020037,0.66718343 0 0 1 -0.350428,-0.66729 0.35020037,0.66718343 0 0 1 0.350428,-0.66729 z m 12.8170449,0 a 0.35020037,0.66718348 0 0 1 0.3500709,0.66729 0.35020037,0.66718348 0 0 1 -0.3500709,0.66729 0.35020037,0.66718348 0 0 1 -0.3504296,-0.66729 0.35020037,0.66718348 0 0 1 0.3504296,-0.66729 z"
       id="path838"
       inkscape:connector-curvature="0" />
  </g>
</svg>
