<?xml version="1.0" encoding="UTF-8" standalone="no"?>
<!-- Created with Inkscape (http://www.inkscape.org/) -->

<svg
   xmlns:dc="http://purl.org/dc/elements/1.1/"
   xmlns:cc="http://creativecommons.org/ns#"
   xmlns:rdf="http://www.w3.org/1999/02/22-rdf-syntax-ns#"
   xmlns:svg="http://www.w3.org/2000/svg"
   xmlns="http://www.w3.org/2000/svg"
   xmlns:sodipodi="http://sodipodi.sourceforge.net/DTD/sodipodi-0.dtd"
   xmlns:inkscape="http://www.inkscape.org/namespaces/inkscape"
   width="26.4585mm"
   height="20.119711mm"
   viewBox="0 0 26.4585 20.119711"
   version="1.1"
   id="svg8"
   inkscape:version="0.92.5 (0.92.5+68)"
   sodipodi:docname="edit_capra_neagra_v2.svg">
  <defs
     id="defs2" />
  <sodipodi:namedview
     id="base"
     pagecolor="#ffffff"
     bordercolor="#666666"
     borderopacity="1.0"
     inkscape:pageopacity="0.0"
     inkscape:pageshadow="2"
     inkscape:zoom="5.6568544"
     inkscape:cx="16.458508"
     inkscape:cy="46.34337"
     inkscape:document-units="px"
     inkscape:current-layer="layer2"
     showgrid="false"
     showborder="false"
     inkscape:window-width="1853"
     inkscape:window-height="1025"
     inkscape:window-x="1987"
     inkscape:window-y="27"
     inkscape:window-maximized="1"
     fit-margin-top="0"
     fit-margin-left="0"
     fit-margin-right="0"
     fit-margin-bottom="0" />
  <metadata
     id="metadata5">
    <rdf:RDF>
      <cc:Work
         rdf:about="">
        <dc:format>image/svg+xml</dc:format>
        <dc:type
           rdf:resource="http://purl.org/dc/dcmitype/StillImage" />
        <dc:title></dc:title>
      </cc:Work>
    </rdf:RDF>
  </metadata>
  <g
     inkscape:groupmode="layer"
     id="layer2"
     inkscape:label="Layer 2"
     transform="translate(-335.85033,-167.63143)">
    <path
       style="fill:#000000;stroke:#000000;stroke-width:0;stroke-linecap:butt;stroke-linejoin:miter;stroke-miterlimit:4;stroke-dasharray:none;stroke-opacity:1"
       d="m 336.3898,167.63143 c 0.004,0.0323 -0.0739,0.0189 -0.0739,0.0189 -0.21678,0.21868 -0.30337,0.1898 -0.30337,0.1898 -0.67231,0.74761 0.96275,2.05204 0.96275,2.05204 0.0272,0.0471 0.0707,3.9e-4 0.0707,3.9e-4 0.13502,-0.78915 0.88023,-0.87473 0.88023,-0.87473 -0.36891,-0.0628 -0.53246,-0.0381 -0.53246,-0.0381 -0.16163,-0.0837 -0.31162,-0.0743 -0.31162,-0.0743 -0.29664,-0.0266 -0.38432,0.004 -0.38432,0.004 -0.13691,-0.006 -0.21848,-0.16544 -0.21848,-0.16544 -0.10269,-0.17305 -0.18076,-0.21495 -0.18076,-0.21495 -0.21298,-0.63704 0.0892,-0.64288 0.0892,-0.64288 0.28144,0 0.37292,-0.10256 0.37292,-0.10256 -0.019,-0.0571 -0.10256,-0.0456 -0.10256,-0.0456 0.10839,-0.0609 0.2566,-0.0342 0.2566,-0.0342 -0.006,-0.0647 -0.0703,-0.0668 -0.0703,-0.0668 z m 1.98092,1.60957 c 0,0 -1.12406,-0.0323 -1.1671,0.89555 0,0 0.1318,0.0755 0.12104,0.12929 0,0 -0.26599,0.13711 -0.2122,0.59965 0,0 0.0617,1.22644 1.09164,1.34747 0,0 0.57012,0.0267 0.8767,0.12614 0,0 0.15341,0.13722 0.26367,0.17486 0.043,-0.005 0.25815,0.0133 0.36035,0.18548 0,0 -0.0861,-0.8309 -0.25818,-1.14823 0,0 0.0133,-0.33345 -0.13989,-0.49749 0,0 -0.47053,0.42744 -0.804,0.40593 0,0 -0.97073,0.1857 -0.97611,-0.52696 0,0 -0.0486,-0.51621 0.40318,-0.61302 0,0 1.12147,-0.097 1.1887,0.23106 0,0 0.0712,0.0906 0.13518,-0.0326 0,0 -0.17487,-0.75335 -0.49434,-1.15649 0,0 -0.18695,0.0542 -0.38864,-0.12063 z m 0.75291,0.20355 -3.9e-4,3.9e-4 c -0.0521,9e-5 -0.0825,0.008 -0.0825,0.008 0.32326,0.40694 0.85193,2.55189 0.85193,2.55189 -0.03,0.115 0.1053,0.65409 0.0892,0.681 -0.0484,0.35497 0.20984,0.58119 0.20984,0.58119 0.13446,0.0807 0.0106,0.45151 0.0106,0.45151 0.0161,0.16673 0.29039,0.11317 0.29039,0.11317 -0.0215,0.20438 0.0161,0.2849 0.0161,0.2849 0.0269,0.19363 -0.0428,0.2959 -0.0428,0.2959 0.0914,0.29582 0.4079,0.18233 0.4079,0.18233 0.0761,0.26622 0.008,0.27389 0.008,0.27389 -0.37271,0.3499 -0.31162,0.47156 -0.31162,0.47156 0.32706,0.33467 0.11396,0.89752 0.11396,0.89752 -0.26622,0.42595 -0.11396,0.71519 -0.11396,0.71519 0.45637,0.38031 0.50181,0.692 0.50181,0.692 -0.0913,0.18255 0.099,0.74545 0.099,0.74545 0.0228,0.1293 0.053,0.68453 0.053,0.68453 0.19016,0.008 0.32734,-0.0149 0.32734,-0.0149 0.44878,0.0989 0.38785,0.0303 0.38785,0.0303 -0.0837,-0.3499 0.0381,-0.65428 0.0381,-0.65428 0.0304,-0.81388 -0.30455,-2.32004 -0.30455,-2.32004 0.008,-0.19776 0.14461,-0.12928 0.14461,-0.12928 0.46399,0.58568 0.34227,3.15311 0.34227,3.15311 0.19396,-0.0209 0.73248,0.13479 0.73248,0.13479 0.0269,-0.0753 -0.0538,-1.29599 -0.0538,-1.29599 -0.11296,-0.23665 -0.0699,-0.87669 -0.0699,-0.87669 -0.0753,-0.25817 -0.0645,-1.25355 -0.0645,-1.25355 -0.0699,-0.34959 -0.10767,-1.51643 -0.10767,-1.51643 -0.16674,-0.40339 -0.12889,-0.89831 -0.12889,-0.89831 -0.10218,-0.17211 -0.26564,-1.40208 -0.26564,-1.40208 -0.10649,-0.19016 -0.14461,-1.0496 -0.14461,-1.0496 0.004,-0.0989 -0.1733,-0.12182 -0.1733,-0.12182 0.54055,-0.34422 0.58866,-0.66449 0.58866,-0.66449 -0.9762,0.69919 -1.22879,0.14814 -1.22879,0.14814 -0.38725,0.0699 -0.39807,-0.13989 -0.39807,-0.13989 0.16673,-0.13446 0.0833,-0.26643 0.0833,-0.26643 -0.1748,0.14254 -0.43029,0.11042 -0.43029,0.11042 -0.11026,-0.20169 -0.81068,-0.31358 -0.81068,-0.31358 -0.23009,-0.25101 -0.44969,-0.28981 -0.56429,-0.28961 z m 3.13582,1.56084 c 0,0 0.0376,0.0966 0.0134,0.23106 0,0 0.0456,0.0297 0.0295,0.16151 0,0 0.0354,0.0136 0.0165,0.15875 0,0 0.0323,0.0161 0.0134,0.15601 0,0 0.0372,0.005 0.0185,0.16386 0,0 0.081,0.11843 0.081,0.24482 0,0 0.0401,0.11027 0.0134,0.20709 0,0 0.0566,0.0915 0.0593,0.27978 0,0 0.0404,0.0643 0.0216,0.16387 0,0 0.0508,0.0967 0.0212,0.18548 0,0 0.0619,0.0406 0.0566,0.20198 0,0 0.0483,0.0887 0.0483,0.2232 0,0 0.0674,0.27398 0.0405,0.39768 0,0 0.0726,0.31738 0.0483,0.36309 0,0 0.0376,-0.0108 0.0538,0.0861 0,0 0.0401,0.21537 -0.005,0.37135 0,0 0.16151,0.3415 0.0916,0.72069 0,0 -0.0726,0.25284 0.0538,0.53521 l -0.0161,1.01109 c 0,0 0.0725,0.0645 0.0617,0.25817 v 0.60791 c 0,0 0.12382,0.30389 0.0888,0.65349 0,0 0.0886,0.58863 -0.011,0.91403 0,0 0.1509,0.0207 0.19845,0.0625 0,0 -0.0208,-0.64073 0.0169,-0.63266 0,0 -0.0271,-0.24435 0.0267,-0.2067 0,0 -0.0482,-0.31747 0.006,-0.29865 0,0 -0.0271,-0.11556 0.0267,-0.0994 0,0 -0.0401,-0.35795 0.005,-0.33913 0,0 -0.0163,-0.40059 0.0267,-0.3737 0,0 -0.067,-0.47342 0.008,-0.45191 0,0 -0.008,-0.22585 0.0212,-0.20434 0,0 -0.0241,-0.15579 0.0216,-0.12889 l -0.003,-0.68571 c 0,0 -0.0615,-0.12124 -0.003,-0.19923 0,0 -2.4e-4,-0.11002 0.0912,-0.29826 0,0 -0.078,-0.0971 0.92778,-0.30415 0,0 0.10747,-0.14765 0.20159,-0.4354 0,0 0.0376,-0.89308 -0.0134,-0.97376 0,0 -0.0403,-0.66134 0.0161,-0.71244 0,0 -0.11555,-0.20181 0.46801,-0.31476 0,0 0.0403,-0.13168 -0.41418,-0.0322 0,0 -0.2555,-0.0942 0.0672,-0.07 0,0 -0.005,-0.16399 -0.6586,-0.11828 0,0 -0.0567,-0.0242 0.14775,-0.07 0,0 0.0431,-0.0459 -0.4409,-0.0916 0,0 0.18828,-0.0724 -0.0483,-0.16386 0,0 -1.23711,0.34424 -0.43304,-0.0161 0,0 -0.22862,-0.27961 -0.67235,-0.13439 0,0 -0.29845,-0.0296 0.0699,-0.3631 0,0 -0.21523,-0.23664 0.32262,-0.4464 0,0 0.0808,-0.25289 -0.18272,-0.0593 0,0 -0.2958,0.0512 -0.41143,-0.13439 z m -5.28021,0.27704 c 0,0 -0.0948,0.004 -0.0644,0.156 0,0 -0.17494,0.19383 -0.33087,0.65782 -0.2358,0.40694 -0.3462,0.53246 -0.3462,0.53246 0.008,0.13692 -0.0798,0.38431 -0.0798,0.38431 0.19016,0.30805 0.30808,0.2739 0.30808,0.2739 0.17495,0.26621 0.3572,0.15207 0.3572,0.15207 0.0913,0.34229 0.56311,0.11396 0.56311,0.11396 0.18636,-0.37651 0.54779,-0.50574 0.54779,-0.50574 0.29665,-0.29665 0.38392,-0.27782 0.38392,-0.27782 0.47921,-0.26242 0.39571,-0.28529 0.39571,-0.28529 -0.87474,0.0495 -1.32742,-0.36113 -1.32742,-0.36113 -0.29284,-0.36891 -0.40711,-0.84054 -0.40711,-0.84054 z m 3.97441,0.50102 c 0.0635,-0.005 0.14068,0.0845 0.14068,0.0845 0.85951,2.04991 0.63532,2.16046 0.64367,2.17896 -0.0914,0.16673 -0.20709,-0.005 -0.20709,-0.005 0.0538,-0.61314 -0.65703,-2.10862 -0.65703,-2.10862 0.009,-0.10982 0.0417,-0.14655 0.0798,-0.14933 z m 4.57327,1.00991 v 3.9e-4 c 0,0 -0.17744,0.13993 -0.47862,0.12378 0,0 -0.24209,0.0429 -0.22596,0.19884 0,0 0.0863,1.59221 0.005,1.72667 0,0 -0.21521,0.27945 -0.20984,0.41929 0,0 -0.0673,0.005 -0.13989,0.0861 0,0 -0.40874,0.13466 -0.80675,0.21534 0,0 -0.10766,0.086 -0.0216,1.0272 0,0 -0.0808,-0.0321 -0.10767,1.28026 0,0 -0.0886,0.71723 -0.09,1.53098 0,0 0.75314,0.14473 0.89006,0.26643 0,0 0.35743,0.008 0.60083,0.0986 0,0 0.099,-0.79865 0.12182,-1.217 0,0 0.0686,-0.48673 0.0153,-0.83661 0,0 0.008,-1.1031 0.053,-1.16395 0,0 0.22075,-0.30389 0.28921,0.23617 0,0 0.2891,1.39938 0.50967,2.01549 0,0 -0.0686,0.66193 0.18234,0.95097 0,0 -0.013,0.0646 0.10295,0.29079 l 0.39532,-0.008 c 0,0 -0.0261,-2.11104 -0.19294,-2.423 0,0 -0.26336,-0.65063 -0.47313,-0.98947 0,0 -0.0429,-0.12894 0.15601,-0.26879 0,0 0.76892,-0.82292 0.66135,-1.22092 0,0 0.17205,-0.57013 -0.39807,-1.04882 0,0 -0.1235,-0.2959 0.0271,-0.2959 0,0 0.0321,-0.15075 0.0912,-0.1615 0,0 -0.19337,-0.10195 -0.17722,-0.16112 0,0 0.016,-0.0591 0.18272,-0.0644 0,0 -0.0753,-0.0755 -0.39806,-0.0755 0,0 -0.15056,-0.12918 -0.2904,-0.10767 0,0 0.0593,-0.10758 -0.42479,-0.17212 0,0 0.0483,-0.11302 0.47862,-0.12378 0,0 -0.16676,-0.13427 -0.32812,-0.12889 z m -2.01196,0.62677 c 0.038,-7.6e-4 0.0799,2.1e-4 0.0947,0.011 0,0 0.23914,0.21786 0.26603,0.55133 0,0 0.094,0.10765 -0.24481,0.34698 0,0 -0.13711,0.0777 -0.20434,-0.1509 0,0 0.0351,-0.24453 -0.0428,-0.38706 0,0 0.0352,-0.16399 -0.024,-0.25543 0,0 -0.0189,-0.07 0.0833,-0.11042 0,0 0.0343,-0.004 0.0723,-0.005 z m 3.15469,0.29236 -0.14422,0.23617 c 0,0 0.63128,0.30411 0.47156,1.43745 0,0 -0.20571,0.64666 -0.81422,1.20953 0,0 0.79123,0.91248 0.63149,3.40737 0,0 -0.29667,0.0152 0.79103,0.25856 0,0 0.0839,-0.14423 -0.0986,-0.78317 l 0.008,-1.07278 c 0,0 0.0682,-0.22036 0.20512,0.008 l -0.0149,0.97376 c 0,0 0.0378,0.3498 0.0986,0.51714 0,0 0.0914,0.13673 0.0153,0.37252 0,0 0.26613,0.061 0.62363,0.0916 0,0 0.19024,-0.0761 0.80635,-0.10649 0,0 -0.0988,-1.57459 -0.31948,-2.12985 0,0 -0.20535,-1.53655 -0.44876,-1.91686 0,0 -0.14445,-0.81385 -0.28136,-0.89752 0,0 -0.0227,-0.50197 -0.28136,-0.92031 0,0 -0.20561,-0.0989 -0.45662,-0.15208 0,0 -0.0759,-0.15211 -0.45622,-0.34227 0,0 -0.14935,-0.10483 -0.33481,-0.19019 z m -1.10815,0.65743 c 0.074,0.002 0.18108,0.0316 0.33638,0.11278 0,0 0.27468,0.14497 0.27468,0.60751 0,0 -0.07,0.15056 -0.2959,0.37646 0,0 -0.13452,0.1183 -0.1399,0.18823 0,0 -0.17756,0.0595 -0.20984,-0.1395 0,0 -0.0374,0.003 -0.005,-0.23696 0,0 0.0266,-0.10738 -0.0326,-0.30101 0,0 -0.0106,-0.32825 -0.0912,-0.50574 0,0 0.0105,-0.0924 0.134,-0.10138 0.009,-6.7e-4 0.0189,-6.4e-4 0.0295,-3.9e-4 z m 3.66397,0.40278 c -0.0208,-4.2e-4 -0.0416,-2.8e-4 -0.0625,3.9e-4 0,0 0.0376,1.50605 -0.0644,1.70506 0,0 0.36573,1.1831 0.36034,1.60799 0,0 0.1666,0.67762 0.0967,0.83897 0,0 0.0538,0.36578 0.11828,0.41419 0,0 0.15077,0.27976 0.0754,0.64013 0,0 0.0105,0.199 0.0696,0.25817 0,0 0.38223,-0.0914 0.72108,0 -0.005,-0.0538 -0.2207,-0.7316 -0.1454,-0.96825 0,0 -0.156,-0.76378 -0.156,-0.94664 0,0 -0.31207,-1.04343 -0.45191,-1.13487 0,0 -0.005,-0.30655 0.19923,-0.0483 0,0 0.41928,0.92517 0.4354,1.10265 0,0 0.0699,0.51617 0.15601,0.64524 0,0 -0.005,0.75849 0.0645,0.79614 0,0 0.0596,0.51105 0.13478,0.55407 0,0 0.31167,-0.0161 0.36545,0.0483 0,0 0.2904,-1.59186 0.2904,-2.14046 0,0 -0.005,-0.67801 0.0593,-0.83936 0,-0.0269 0.0484,-0.53239 -0.0645,-1.54355 l 0.005,-0.68297 c 0,0 -0.85514,-0.12378 -1.25315,-0.12378 0,0 0.36051,0.36025 0.33362,0.51085 0,0 0.19891,0.35531 0.23657,0.39296 0,0 0.24228,0.24739 0.26917,0.72069 0,0 -0.10239,0.19341 -0.21534,-0.011 0,0 -0.0107,-0.4034 -0.47862,-0.96276 0,0 0.0213,-0.26892 -0.48963,-0.70458 0,0 -0.29749,-0.12278 -0.60948,-0.12928 z m 6.73023,0.0558 c -0.1826,-0.003 -0.27232,0.0479 -0.27232,0.0479 0,0.0989 -0.39571,0.55526 -0.39571,0.55526 0.0456,0.251 -0.0684,0.51713 -0.0684,0.51713 -0.41835,0.0837 -0.98869,-0.18233 -0.98869,-0.18233 0.4716,1.14095 0.24325,3.17944 0.24325,3.17944 -0.0609,0.98122 -0.12929,2.49491 -0.12929,2.49491 0.0837,0.3613 0.63542,0.34227 0.63542,0.34227 0.19776,-0.17495 0.41811,-0.0951 0.41811,-0.0951 0.27762,-0.0875 0.24324,0.34227 0.24324,0.34227 0.55146,-0.038 0.70379,0.0798 0.70379,0.0798 0,-0.92417 -0.0876,-1.98131 -0.0876,-1.98131 -0.50582,-0.23199 -0.51713,-0.51713 -0.51713,-0.51713 -0.41454,-0.0951 -0.59691,-0.0228 -0.59691,-0.0228 0.0799,0.0609 0.0415,0.5589 0.0491,0.57411 0.0646,0.0494 -0.0189,0.40318 -0.0189,0.40318 0.1217,-0.0532 0.21691,0.0189 0.21691,0.0189 0.45259,-0.008 0.47156,0.10296 0.47156,0.10296 l -0.0153,0.60437 c -0.15213,0.0723 -0.30808,-0.0723 -0.30808,-0.0723 -0.38792,0.0761 -0.53993,-0.19373 -0.53993,-0.19373 l -0.0267,-1.34628 c -0.0723,-0.18635 -0.14068,-0.92817 -0.14068,-0.92817 -0.0456,-0.45258 -0.008,-1.05706 -0.008,-1.05706 0.13311,-0.29665 0.23931,-0.004 0.23931,-0.004 -0.0114,0.31185 0.0346,0.43343 0.0346,0.43343 0.29286,0.28904 0.68061,0.2625 0.68061,0.2625 0.15594,-0.39172 -0.0762,-0.73405 -0.0762,-0.73405 0.12931,-0.69978 -0.19255,-1.02956 -0.19255,-1.02956 -0.19094,0.035 -0.25032,-0.035 -0.25032,-0.035 -0.0134,-0.18556 0.70458,-0.78239 0.70458,-0.78239 0.14522,-0.21245 0.96,-0.73444 0.96,-0.73444 0.0726,-0.2017 -0.0161,-0.19491 -0.0161,-0.19491 l -0.22045,0.15208 c -0.34229,0.11408 -0.5022,0.0381 -0.5022,0.0381 -0.1141,-0.12931 -0.0149,-0.21299 -0.0149,-0.21299 -0.0816,-0.0171 -0.15287,-0.024 -0.21377,-0.0251 z m -4.29742,0.30494 c 0,0 0.097,1.80165 0.0271,1.85006 0,0 0.016,1.11891 -0.0593,1.45238 0,0 -0.16674,1.81246 -0.34423,2.07601 0,0 0.26889,0.17749 0.54857,0.25817 0,0 0.0968,0.17741 0.36035,0.23657 0,0 0.5003,-2.06538 0.4519,-2.08152 0,0 0.0215,-0.0429 -0.41418,-0.0322 0,0 -0.36045,-0.19371 0.0322,-0.20984 l 0.39807,0.011 c 0,0 0.0486,-0.96288 0.18312,-1.931 0,0 -0.10233,-0.15608 -0.52185,-0.0216 0,0 -0.20451,-0.0484 0.0106,-0.22595 0,0 0.0537,-0.0966 0.51085,0.006 0,0 0.0865,-1.04894 0.0487,-1.31249 0,0 -0.54349,0.011 -1.23194,-0.0751 z m 1.43117,0.0625 c 0,0 0.051,0.92374 -0.0605,1.36907 0,0 -0.0152,1.32359 -0.10649,1.68109 0,0 -0.0688,1.14869 -0.22085,1.52901 0,0 -0.21288,0.61609 -0.30415,1.32349 0,0 0.53241,0.28124 0.79103,0.37253 0,0 0.25863,-0.82138 0.21299,-2.05362 0,0 0.0684,-0.2816 0.21298,-0.0534 0,0 0.0609,1.31591 -0.21298,2.17543 l 0.60869,0.28136 c 0,0 0.2205,-1.20917 0.17487,-1.50582 0,0 0.14441,-1.9169 0.0684,-2.21355 0,0 0.0876,-0.93545 0.0287,-1.14273 0,0 -0.0173,-0.85376 -0.40907,-1.41662 0,0 -0.32713,-0.0649 -0.60477,-0.31594 0,0 -0.0795,0.0268 -0.1784,-0.0303 z m -5.49438,0.79024 c 0.0738,0.008 0.12457,0.15286 0.12457,0.15286 0,0 -0.008,0.15229 0.0134,0.35956 0,0 0.0435,0.16158 0.0283,0.5419 0,0 -0.17114,0.2815 -0.22439,-0.0228 0,0 0.0494,-0.2474 0.008,-0.37292 0,0 0.008,-0.33464 -0.0495,-0.46015 0,0 -0.0454,-0.0226 -0.004,-0.11396 0.0314,-0.0561 0.0611,-0.08 0.0884,-0.0841 0.005,-7.6e-4 0.0101,-8.3e-4 0.0149,-4e-4 z m 6.00719,0.91992 c 0.0308,-7.6e-4 0.069,0.0178 0.11474,0.0754 0,0 0.12926,0.78152 0.0798,0.89752 0,0 -0.1198,0.19201 -0.22438,-0.009 0,0 -0.002,-0.6655 -0.0703,-0.86137 0,0 0.0324,-0.0998 0.1002,-0.10217 z m -12.75471,0.8653 c 0,0 -0.32003,0.15323 -0.43029,0.1344 0,0 -0.49471,-0.0215 -0.76903,0.035 0,0 -0.18571,0.11316 -0.33362,0.3014 0,0 -0.0457,0.0483 -0.0483,0.20159 0,0 -0.0669,0.14244 -0.24442,0.18548 0,0 -0.081,0.0351 -0.13478,0.21259 l -0.0806,0.12378 c 0,0 -0.003,0.0322 0.035,0.23656 0,0 -0.0752,0.14253 -0.13439,0.39532 0,0 -0.1668,0.18568 -0.26092,0.57294 0,0 -0.14251,0.1802 -0.23932,0.51635 0,0 0.003,0.23368 -0.19098,0.45151 l -0.2177,0.2287 c 0,0 -0.0513,-0.0296 -0.006,0.43029 0,0 0.0214,0.0351 -0.24481,0.38471 0,0 0.0135,0.24181 -0.0645,0.28215 v 0.29315 c 0,0 0.15884,0.0402 0.11042,0.18547 l -0.11277,0.12379 -0.008,0.3737 c 0,0 0.10492,-0.0483 0.10492,0.0916 0,0 0.14529,0.097 0.20984,-0.024 0,0 0.14534,-0.0703 0.36585,-0.36074 0,0 0.12884,-0.13141 0.24717,-0.15561 0,0 0.0243,-0.0727 0.003,-0.36585 0,0 0.0404,0.008 0.0566,-0.1505 0,0 0.11547,-0.043 0.19884,-0.17212 0,0 -0.0213,-0.22883 0.0432,-0.26917 0,0 0.0481,-0.0455 0.10727,-0.0267 0,0 0.0187,-0.13463 -0.0189,-0.28253 0,0 0.081,-0.14253 0.0621,-0.39532 0,0 -0.0187,-0.3336 0.18823,-0.51242 0,0 -0.17479,0.65426 -0.0303,1.10304 0,0 -0.13939,0.11398 -0.25503,0.1839 0,0 0.0567,0.0729 -0.0912,0.26918 0,0 -0.1184,0.45705 -0.0727,0.64799 0,0 0.0728,0.11545 0.16151,0.21495 0,0 -0.005,0.25039 0.035,0.28804 0,0 -0.0594,0.20409 0.0267,0.2794 0,0 0.0457,0.0295 0.12103,0.0644 0,0 0.1344,-0.0268 0.25542,-0.22045 0,0 0.16416,-0.30113 0.22871,-0.25542 0,0 0.26637,-0.29035 0.21259,-0.37371 0,0 -0.18832,-0.20179 -0.07,-0.33087 0,0 0.1424,-0.0726 0.13164,-0.13714 -0.0134,-0.0108 0.0162,-0.12383 -0.0833,-0.22871 0,0 -0.005,-0.16105 0.11829,-0.24442 0,0 0.0646,-0.13728 -0.0617,-0.52185 0,0 0.0886,-0.65906 0.0617,-0.91992 0,0 0.0995,-0.34414 0.0672,-0.63188 0,0 0.10489,-0.33893 0.0888,-0.46802 0,0 0.11283,-0.15044 0.16662,-0.31987 0,0 0.07,-0.12102 0.17761,-0.17211 0,0 0.32555,0.0242 0.47077,0 0,0 0.25274,-0.0106 0.2904,0.0244 0,0 0.0457,-0.57826 -0.0861,-0.82836 0,0 0.0188,-0.0646 -0.0483,-0.27979 0,0 -0.0299,-0.11561 -0.008,-0.18823 z m 15.60407,2.45601 0.008,0.28175 c 0.0951,0.15974 0.0495,0.80242 0.0495,0.80242 0.0913,0.0913 0.0495,0.85548 0.0495,0.85548 0.1141,0.11029 0.67314,0.20159 0.67314,0.20159 0.19776,0.0152 0.3462,0.099 0.3462,0.099 -0.11409,-0.67315 0.12889,-0.5745 0.12889,-0.5745 0.232,0.0532 0.44916,0.33873 0.44916,0.33873 0.30425,0.47158 0.45622,0.98122 0.45622,0.98122 0.16354,0.0837 0.30062,0.46016 0.30062,0.46016 0.0608,0.41834 0.19373,0.52853 0.19373,0.52853 -0.0647,-0.0989 -0.0609,-0.80989 -0.0609,-0.80989 0.0571,-0.32327 -0.33087,-1.27437 -0.33087,-1.27437 -0.19016,-0.28525 -0.0912,-0.35367 -0.0912,-0.35367 0.0418,-0.12931 0.41457,-0.20159 0.41457,-0.20159 0.38412,-0.40693 -0.17133,-0.94703 -0.17133,-0.94703 0.0266,0.0799 -0.37999,-0.004 -0.37999,-0.004 0,0 -0.0117,-0.0308 -0.22084,0.004 0,0 -0.0663,-0.0757 -0.59416,-0.11946 -0.46473,0.0514 -1.21975,-0.26839 -1.21975,-0.26839 z m 2.71535,0.4071 c 0.68457,1.11053 -0.34227,1.25512 -0.34227,1.25512 0.70739,1.39957 0.51361,3.0309 0.51361,3.0309 0.18255,0.12551 0.25856,0.72659 0.25856,0.72659 0.0266,0.19777 0.22438,0.47548 0.22438,0.47548 0.32708,0.86713 0.22438,1.58206 0.22438,1.58206 0.31568,0.15213 0.81776,-0.11789 0.81776,-0.11789 0.10648,-0.3575 -0.15208,-0.53246 -0.15208,-0.53246 0.0989,0.0152 0.34227,-0.3348 0.34227,-0.3348 0.0304,-0.12931 -0.15994,-0.20552 -0.15994,-0.20552 -0.0228,-0.1217 0.008,-0.39532 0.008,-0.39532 l 0.12182,-0.099 c -0.0304,-0.21297 -0.28922,-0.50181 -0.28922,-0.50181 -0.30425,-0.16734 -0.28136,-0.50967 -0.28136,-0.50967 -0.0684,-0.38032 -0.34227,-0.74544 -0.34227,-0.74544 0,0 -0.007,-0.23865 0.14461,-0.14461 0.34989,0.31186 0.49435,1.17927 0.49435,1.17927 0.57047,0.3499 0.53246,0.8822 0.53246,0.8822 0.76064,1.17898 1.0268,0.44876 1.0268,0.44876 -0.17495,-0.26622 -0.0381,-0.53246 -0.0381,-0.53246 -0.10649,-0.13692 -0.22046,-0.67707 -0.22046,-0.67707 -0.10648,-0.1217 -0.12928,-0.47156 -0.12928,-0.47156 0.19016,0.1141 0,-0.39531 0,-0.39531 -0.27381,-0.11411 -0.31201,-0.525 -0.31201,-0.525 -0.16735,-0.0989 -0.53993,-0.85194 -0.53993,-0.85194 -0.1141,0.0152 -0.54778,-0.81382 -0.54778,-0.81382 -0.13691,-0.41075 -0.67668,-1.17888 -0.67668,-1.17888 l -0.0153,-0.21298 -0.21298,-0.28176 z m -1.01266,0.37607 v 3.9e-4 c 0.12294,1.6e-4 0.24683,0.006 0.32813,0.0192 0.13691,0.0913 0.004,0.1898 0.004,0.1898 l -0.74938,-0.008 c -0.19776,-0.1369 0.01,-0.18979 0.01,-0.18979 0,0 0.20261,-0.012 0.4075,-0.0118 z m 1.73807,1.31523 c 0.0371,0.003 0.0735,0.0428 0.0735,0.0428 0.17495,0.20537 0.14422,0.67707 0.14422,0.67707 0,0 0.0236,0.38655 -0.22045,0.14461 0.008,-0.40313 -0.0762,-0.68454 -0.0762,-0.68454 0.004,-0.14832 0.0419,-0.18283 0.079,-0.17998 z"
       id="path4532"
       inkscape:connector-curvature="0" />
  </g>
</svg>
